<svg width="30" height="30" viewBox="0 0 30 30" fill="none" xmlns="http://www.w3.org/2000/svg">
<path d="M14.8652 0C1.07948 0 0 1.07948 0 14.8652V15.1348C0 28.9205 1.07948 30 14.8652 30H15.1348C28.9205 30 30 28.9205 30 15.1348V15C30 1.089 28.911 0 15 0H14.8652ZM12 3H18C26.3467 3 27 3.65325 27 12V18C27 26.3467 26.3467 27 18 27H12C3.65325 27 3 26.3467 3 18V12C3 3.65325 3.65325 3 12 3ZM22.4956 6C21.6669 6.00225 20.9977 6.67564 21 7.50439C21.0023 8.33314 21.6756 9.00225 22.5044 9C23.3331 8.99775 24.0023 8.32436 24 7.49561C23.9977 6.66686 23.3244 5.99775 22.4956 6ZM14.9824 7.5C10.8409 7.50975 7.49025 10.8761 7.5 15.0176C7.50975 19.1591 10.8761 22.5098 15.0176 22.5C19.1591 22.4902 22.5098 19.1239 22.5 14.9824C22.4902 10.8409 19.1239 7.49025 14.9824 7.5ZM14.9897 10.5C17.4745 10.494 19.494 12.505 19.5 14.9897C19.5053 17.4745 17.495 19.494 15.0103 19.5C12.5255 19.506 10.506 17.4958 10.5 15.0103C10.494 12.5255 12.505 10.506 14.9897 10.5Z" fill="black"/>
</svg>
