{
	"asset":{
		"version":"2.0",
		"generator":""
	},
	"scenes":[{
		"nodes":[0]
	}],
	"nodes":[{
		"name":"RADIO.ai",
		"children":[1]
	},
	{
		"name":"Null",
		"translation":[-0.33790451288223269,
		-0.16845151782035829,
		0.0],
		"rotation":[0.0,
		0.0,
		0.0,
		-1.0],
		"scale":[1.0,
		1.0,
		1.0],
		"children":[2]
	},
	{
		"name":"Layer 1",
		"translation":[0.3479613959789276,
		0.17364586889743806,
		0.0],
		"rotation":[0.0,
		0.0,
		0.0,
		-1.0],
		"scale":[1.0,
		1.0,
		1.0],
		"children":[3,
		4,
		5,
		6,
		7]
	},
	{
		"name":"Fill",
		"mesh":0,
		"translation":[-0.3479613959789276,
		-0.17364586889743806,
		0.0],
		"rotation":[0.0,
		0.0,
		0.0,
		-1.0],
		"scale":[1.0,
		1.0,
		1.0]
	},
	{
		"name":"Fill",
		"mesh":1,
		"translation":[-0.3479613959789276,
		-0.17364586889743806,
		0.0],
		"rotation":[0.0,
		0.0,
		0.0,
		-1.0],
		"scale":[1.0,
		1.0,
		1.0]
	},
	{
		"name":"Fill",
		"mesh":2,
		"translation":[-0.3479613959789276,
		-0.17364586889743806,
		0.0],
		"rotation":[0.0,
		0.0,
		0.0,
		-1.0],
		"scale":[1.0,
		1.0,
		1.0]
	},
	{
		"name":"Fill",
		"mesh":3,
		"translation":[-0.3479613959789276,
		-0.17364586889743806,
		0.0],
		"rotation":[0.0,
		0.0,
		0.0,
		-1.0],
		"scale":[1.0,
		1.0,
		1.0]
	},
	{
		"name":"Fill",
		"mesh":4,
		"translation":[-0.3479613959789276,
		-0.17364586889743806,
		0.0],
		"rotation":[0.0,
		0.0,
		0.0,
		-1.0],
		"scale":[1.0,
		1.0,
		1.0]
	}],
	"meshes":[{
		"name":"Fill",
		"primitives":[{
			"attributes":{
				"POSITION":1,
				"NORMAL":2,
				"TEXCOORD_0":3
			},
			"indices":0,
			"material":0
		}]
	},
	{
		"name":"Fill",
		"primitives":[{
			"attributes":{
				"POSITION":5,
				"NORMAL":6,
				"TEXCOORD_0":7
			},
			"indices":4,
			"material":1
		}]
	},
	{
		"name":"Fill",
		"primitives":[{
			"attributes":{
				"POSITION":9,
				"NORMAL":10,
				"TEXCOORD_0":11
			},
			"indices":8,
			"material":2
		}]
	},
	{
		"name":"Fill",
		"primitives":[{
			"attributes":{
				"POSITION":13,
				"NORMAL":14,
				"TEXCOORD_0":15
			},
			"indices":12,
			"material":3
		}]
	},
	{
		"name":"Fill",
		"primitives":[{
			"attributes":{
				"POSITION":17,
				"NORMAL":18,
				"TEXCOORD_0":19
			},
			"indices":16,
			"material":4
		}]
	}],
	"accessors":[{
		"min":[0],
		"bufferView":0,
		"type":"SCALAR",
		"componentType":5123,
		"count":396,
		"byteOffset":0,
		"max":[395]
	},
	{
		"min":[0.5846012830734253,
		0.17580562829971314,
		-0.019290916621685029],
		"bufferView":1,
		"type":"VEC3",
		"componentType":5126,
		"count":396,
		"byteOffset":0,
		"max":[0.6089009642601013,
		0.18788686394691468,
		0.0007090832805261016]
	},
	{
		"min":[-0.9986094832420349,
		-1.0,
		-1.0],
		"bufferView":1,
		"type":"VEC3",
		"componentType":5126,
		"count":396,
		"byteOffset":12,
		"max":[0.9996035099029541,
		0.9999895095825195,
		1.0]
	},
	{
		"min":[0.0,
		0.0],
		"bufferView":1,
		"type":"VEC2",
		"componentType":5126,
		"count":396,
		"byteOffset":24,
		"max":[1.0,
		1.0]
	},
	{
		"min":[0],
		"bufferView":2,
		"type":"SCALAR",
		"componentType":5123,
		"count":708,
		"byteOffset":0,
		"max":[707]
	},
	{
		"min":[0.3769736588001251,
		0.1495753675699234,
		-0.0194673053920269],
		"bufferView":3,
		"type":"VEC3",
		"componentType":5126,
		"count":708,
		"byteOffset":0,
		"max":[0.4022332429885864,
		0.18733811378479005,
		0.0005326944519765675]
	},
	{
		"min":[-1.0,
		-0.9999716281890869,
		-1.0],
		"bufferView":3,
		"type":"VEC3",
		"componentType":5126,
		"count":708,
		"byteOffset":12,
		"max":[0.9999867677688599,
		0.9999774694442749,
		1.0]
	},
	{
		"min":[0.0,
		0.0],
		"bufferView":3,
		"type":"VEC2",
		"componentType":5126,
		"count":708,
		"byteOffset":24,
		"max":[1.0,
		1.0]
	},
	{
		"min":[0],
		"bufferView":4,
		"type":"SCALAR",
		"componentType":5123,
		"count":396,
		"byteOffset":0,
		"max":[395]
	},
	{
		"min":[0.06758943200111389,
		0.17580562829971314,
		-0.019643694162368776],
		"bufferView":5,
		"type":"VEC3",
		"componentType":5126,
		"count":396,
		"byteOffset":0,
		"max":[0.09188912063837052,
		0.18788686394691468,
		0.00035630553611554205]
	},
	{
		"min":[-0.9986094832420349,
		-1.0,
		-1.0],
		"bufferView":5,
		"type":"VEC3",
		"componentType":5126,
		"count":396,
		"byteOffset":12,
		"max":[0.9996035099029541,
		0.9999895095825195,
		1.0]
	},
	{
		"min":[0.0,
		0.0],
		"bufferView":5,
		"type":"VEC2",
		"componentType":5126,
		"count":396,
		"byteOffset":24,
		"max":[1.0,
		1.0]
	},
	{
		"min":[0],
		"bufferView":6,
		"type":"SCALAR",
		"componentType":5123,
		"count":14712,
		"byteOffset":0,
		"max":[14711]
	},
	{
		"min":[0.026682380586862565,
		0.11569516360759735,
		-0.019820082932710649],
		"bufferView":7,
		"type":"VEC3",
		"componentType":5126,
		"count":14712,
		"byteOffset":0,
		"max":[0.6491398811340332,
		0.22120781242847444,
		0.0001799166639102623]
	},
	{
		"min":[-1.0,
		-1.0,
		-1.0],
		"bufferView":7,
		"type":"VEC3",
		"componentType":5126,
		"count":14712,
		"byteOffset":12,
		"max":[1.0,
		1.0,
		1.0]
	},
	{
		"min":[0.0,
		0.0],
		"bufferView":7,
		"type":"VEC2",
		"componentType":5126,
		"count":14712,
		"byteOffset":24,
		"max":[1.0,
		1.0]
	},
	{
		"min":[0],
		"bufferView":8,
		"type":"SCALAR",
		"componentType":5123,
		"count":12384,
		"byteOffset":0,
		"max":[12383]
	},
	{
		"min":[0.021427616477012636,
		0.11041957885026932,
		-0.01999647170305252],
		"bufferView":9,
		"type":"VEC3",
		"componentType":5126,
		"count":12384,
		"byteOffset":0,
		"max":[0.6543813943862915,
		0.22648346424102784,
		0.0000035277773804409664]
	},
	{
		"min":[-0.9998837113380432,
		-0.9999866485595703,
		-1.0],
		"bufferView":9,
		"type":"VEC3",
		"componentType":5126,
		"count":12384,
		"byteOffset":12,
		"max":[0.9998841881752014,
		0.9999967813491821,
		1.0]
	},
	{
		"min":[0.0,
		0.0],
		"bufferView":9,
		"type":"VEC2",
		"componentType":5126,
		"count":12384,
		"byteOffset":24,
		"max":[1.0,
		1.0]
	}],
	"bufferViews":[{
		"buffer":0,
		"byteOffset":0,
		"byteLength":792,
		"target":34963
	},
	{
		"buffer":0,
		"byteOffset":792,
		"byteLength":12672,
		"target":34962,
		"byteStride":32
	},
	{
		"buffer":1,
		"byteOffset":0,
		"byteLength":1416,
		"target":34963
	},
	{
		"buffer":1,
		"byteOffset":1416,
		"byteLength":22656,
		"target":34962,
		"byteStride":32
	},
	{
		"buffer":2,
		"byteOffset":0,
		"byteLength":792,
		"target":34963
	},
	{
		"buffer":2,
		"byteOffset":792,
		"byteLength":12672,
		"target":34962,
		"byteStride":32
	},
	{
		"buffer":3,
		"byteOffset":0,
		"byteLength":29424,
		"target":34963
	},
	{
		"buffer":3,
		"byteOffset":29424,
		"byteLength":470784,
		"target":34962,
		"byteStride":32
	},
	{
		"buffer":4,
		"byteOffset":0,
		"byteLength":24768,
		"target":34963
	},
	{
		"buffer":4,
		"byteOffset":24768,
		"byteLength":396288,
		"target":34962,
		"byteStride":32
	}],
	"buffers":[{
		"uri":"data:application/octet-stream;base64,",
		"byteLength":13464
	},
	{
		"uri":"data:application/octet-stream;base64,",
		"byteLength":24072
	},
	{
		"uri":"data:application/octet-stream;base64,",
		"byteLength":13464
	},
	{
		"uri":"data:application/octet-stream;base64,",
		"byteLength":500208
	},
	{
		"uri":"data:application/octet-stream;base64,",
		"byteLength":421056
	}],
	"materials":[{
		"pbrMetallicRoughness":{
			"baseColorFactor":[1.0,
			1.0,
			1.0,
			1.0],
			"metallicFactor":1.0,
			"roughnessFactor":1.0
		},
		"name":"",
		"emissiveFactor":[0.0,
		0.0,
		0.0],
		"alphaMode":"OPAQUE",
		"doubleSided":false
	},
	{
		"pbrMetallicRoughness":{
			"baseColorFactor":[1.0,
			1.0,
			1.0,
			1.0],
			"metallicFactor":1.0,
			"roughnessFactor":1.0
		},
		"name":"",
		"emissiveFactor":[0.0,
		0.0,
		0.0],
		"alphaMode":"OPAQUE",
		"doubleSided":false
	},
	{
		"pbrMetallicRoughness":{
			"baseColorFactor":[1.0,
			1.0,
			1.0,
			1.0],
			"metallicFactor":1.0,
			"roughnessFactor":1.0
		},
		"name":"",
		"emissiveFactor":[0.0,
		0.0,
		0.0],
		"alphaMode":"OPAQUE",
		"doubleSided":false
	},
	{
		"pbrMetallicRoughness":{
			"baseColorFactor":[1.0,
			1.0,
			1.0,
			1.0],
			"metallicFactor":1.0,
			"roughnessFactor":1.0
		},
		"name":"",
		"emissiveFactor":[0.0,
		0.0,
		0.0],
		"alphaMode":"OPAQUE",
		"doubleSided":false
	},
	{
		"pbrMetallicRoughness":{
			"baseColorFactor":[1.0,
			1.0,
			1.0,
			1.0],
			"metallicFactor":1.0,
			"roughnessFactor":1.0
		},
		"name":"",
		"emissiveFactor":[0.0,
		0.0,
		0.0],
		"alphaMode":"OPAQUE",
		"doubleSided":false
	}]
}